<mxfile host="app.diagrams.net" modified="2023-05-26T14:16:13.331Z" agent="Mozilla/5.0 (Windows NT 10.0; Win64; x64) AppleWebKit/537.36 (KHTML, like Gecko) Chrome/113.0.0.0 Safari/537.36" etag="7FfZAKfezGWa603Lm8vn" version="21.3.4" type="github">
  <diagram id="C5RBs43oDa-KdzZeNtuy" name="Page-1">
    <mxGraphModel dx="483" dy="1520" grid="1" gridSize="10" guides="1" tooltips="1" connect="1" arrows="1" fold="1" page="1" pageScale="1" pageWidth="827" pageHeight="1169" math="0" shadow="0">
      <root>
        <mxCell id="WIyWlLk6GJQsqaUBKTNV-0" />
        <mxCell id="WIyWlLk6GJQsqaUBKTNV-1" parent="WIyWlLk6GJQsqaUBKTNV-0" />
        <mxCell id="mdCKoyrQxYq-ATG2mvke-13" value="" style="edgeStyle=none;curved=1;rounded=0;orthogonalLoop=1;jettySize=auto;html=1;fontSize=12;startSize=8;endSize=8;" edge="1" parent="WIyWlLk6GJQsqaUBKTNV-1" source="mdCKoyrQxYq-ATG2mvke-0" target="mdCKoyrQxYq-ATG2mvke-7">
          <mxGeometry relative="1" as="geometry" />
        </mxCell>
        <mxCell id="mdCKoyrQxYq-ATG2mvke-0" value="데이터 전처리" style="whiteSpace=wrap;html=1;rounded=1;glass=0;strokeWidth=1;shadow=0;fontSize=16;" vertex="1" parent="WIyWlLk6GJQsqaUBKTNV-1">
          <mxGeometry x="400" y="160" width="120" height="60" as="geometry" />
        </mxCell>
        <mxCell id="mdCKoyrQxYq-ATG2mvke-12" value="" style="edgeStyle=none;curved=1;rounded=0;orthogonalLoop=1;jettySize=auto;html=1;fontSize=12;startSize=8;endSize=8;" edge="1" parent="WIyWlLk6GJQsqaUBKTNV-1" source="mdCKoyrQxYq-ATG2mvke-3" target="mdCKoyrQxYq-ATG2mvke-0">
          <mxGeometry relative="1" as="geometry" />
        </mxCell>
        <mxCell id="mdCKoyrQxYq-ATG2mvke-3" value="데이터셋 확보" style="whiteSpace=wrap;html=1;fontSize=16;rounded=1;glass=0;strokeWidth=1;shadow=0;" vertex="1" parent="WIyWlLk6GJQsqaUBKTNV-1">
          <mxGeometry x="400" y="-20" width="120" height="60" as="geometry" />
        </mxCell>
        <mxCell id="mdCKoyrQxYq-ATG2mvke-16" value="" style="edgeStyle=none;curved=1;rounded=0;orthogonalLoop=1;jettySize=auto;html=1;fontSize=12;startSize=8;endSize=8;" edge="1" parent="WIyWlLk6GJQsqaUBKTNV-1" source="mdCKoyrQxYq-ATG2mvke-5" target="mdCKoyrQxYq-ATG2mvke-15">
          <mxGeometry relative="1" as="geometry" />
        </mxCell>
        <mxCell id="mdCKoyrQxYq-ATG2mvke-5" value="예측" style="whiteSpace=wrap;html=1;fontSize=16;rounded=1;glass=0;strokeWidth=1;shadow=0;" vertex="1" parent="WIyWlLk6GJQsqaUBKTNV-1">
          <mxGeometry x="640" y="-20" width="120" height="60" as="geometry" />
        </mxCell>
        <mxCell id="mdCKoyrQxYq-ATG2mvke-14" value="" style="edgeStyle=none;curved=1;rounded=0;orthogonalLoop=1;jettySize=auto;html=1;fontSize=12;startSize=8;endSize=8;" edge="1" parent="WIyWlLk6GJQsqaUBKTNV-1" source="mdCKoyrQxYq-ATG2mvke-7" target="mdCKoyrQxYq-ATG2mvke-5">
          <mxGeometry relative="1" as="geometry" />
        </mxCell>
        <mxCell id="mdCKoyrQxYq-ATG2mvke-7" value="가중치 학습" style="whiteSpace=wrap;html=1;fontSize=16;rounded=1;glass=0;strokeWidth=1;shadow=0;" vertex="1" parent="WIyWlLk6GJQsqaUBKTNV-1">
          <mxGeometry x="640" y="160" width="120" height="60" as="geometry" />
        </mxCell>
        <mxCell id="mdCKoyrQxYq-ATG2mvke-15" value="모델 평가" style="whiteSpace=wrap;html=1;fontSize=16;rounded=1;glass=0;strokeWidth=1;shadow=0;" vertex="1" parent="WIyWlLk6GJQsqaUBKTNV-1">
          <mxGeometry x="880" y="-20" width="120" height="60" as="geometry" />
        </mxCell>
      </root>
    </mxGraphModel>
  </diagram>
</mxfile>
